<svg width="48" height="51" viewBox="0 0 48 51" fill="none" xmlns="http://www.w3.org/2000/svg">
<g clip-path="url(#clip0_53_761)">
<path d="M-5.52526 4.86295C-6.31116 4.5846 -7.16064 5.03589 -7.42262 5.87093C-7.68458 6.70597 -7.25984 7.60854 -6.47394 7.88687L-5.94412 8.07453C-4.5913 8.55363 -3.6969 8.87296 -3.038 9.19863C-2.41408 9.50701 -2.14432 9.75521 -1.97148 10.01C-1.79864 10.2648 -1.66234 10.6152 -1.5843 11.3416C-1.50186 12.1087 -1.4996 13.1112 -1.4996 14.6264V20.304C-1.49964 23.2101 -1.49966 25.5525 -1.26654 27.3949C-1.02452 29.3076 -0.506724 30.9181 0.697096 32.1971C1.90094 33.4762 3.41668 34.0263 5.2169 34.2835C6.95084 34.5312 9.15546 34.5312 11.8906 34.5312H26.0004C26.8288 34.5312 27.5004 33.8177 27.5004 32.9375C27.5004 32.0571 26.8288 31.3437 26.0004 31.3437H12.0004C9.12958 31.3437 7.12734 31.3403 5.61664 31.1244C4.1491 30.9149 3.37196 30.5314 2.81842 29.9434C2.34806 29.4436 2.01678 28.7721 1.8068 27.625H22.0444C23.9634 27.625 24.9228 27.625 25.6742 27.0984C26.4256 26.5721 26.8034 25.6351 27.5594 23.7611L28.4164 21.6361C30.0354 17.6224 30.845 15.6155 29.9558 14.1827C29.0666 12.7499 27.0116 12.7499 22.9016 12.7499H1.49052C1.47872 12.0961 1.45288 11.5062 1.39634 10.98C1.28564 9.9498 1.04444 9.00447 0.462237 8.14623C-0.119963 7.288 -0.887743 6.74594 -1.7726 6.30855C-2.60508 5.89708 -3.66372 5.52219 -4.91648 5.07856L-5.52526 4.86295Z" fill="#681B1E"/>
<path d="M15 38.25C16.6569 38.25 18 39.6772 18 41.4375C18 43.1979 16.6569 44.625 15 44.625C13.3431 44.625 12 43.1979 12 41.4375C12 39.6772 13.3431 38.25 15 38.25Z" fill="#681B1E"/>
<path d="M33 38.2502C34.6568 38.2502 36 39.6771 36 41.4377C36 43.1981 34.6568 44.6252 33 44.6252C31.3432 44.6252 30 43.1981 30 41.4377C30 39.6771 31.3432 38.2502 33 38.2502Z" fill="#681B1E"/>
</g>
<defs>
<clipPath id="clip0_53_761">
<rect width="48" height="51" fill="white"/>
</clipPath>
</defs>
</svg>
