<svg width="52" height="52" viewBox="0 0 52 52" fill="none" xmlns="http://www.w3.org/2000/svg">
<g clip-path="url(#clip0_53_772)">
<path d="M26 0C40.355 0 51.9907 11.6357 51.9907 25.9908C51.9907 40.3458 40.355 51.9815 26 51.9815C11.645 51.9815 0.00921631 40.3458 0.00921631 25.9908C0.00921631 11.6357 11.645 0 26 0Z" fill="#FFE356"/>
<path d="M26 0.5C40.0789 0.5 51.4907 11.9119 51.4907 25.9908C51.4907 40.0696 40.0789 51.4815 26 51.4815C11.9211 51.4815 0.509216 40.0696 0.509216 25.9908C0.509216 11.9119 11.9211 0.5 26 0.5Z" stroke="black" stroke-opacity="0.44"/>
<path d="M17.3427 22.476H34.195V33.2793C34.195 37.9041 30.4028 41.6963 25.7781 41.6963C21.1533 41.6963 17.3611 37.9041 17.3611 33.2793V22.476H17.3427Z" fill="#F7CB48"/>
<path d="M19.8769 7.28848L16.2512 7.60301C16.2512 7.60301 9.9246 6.78907 8.62973 12.3202C7.33486 17.8329 4.28247 23.6785 4.28247 23.6785L11.349 26.7863L13.4579 22.4392V48.7814C17.1761 50.8348 21.4494 52.0002 25.9816 52.0002C30.5323 52.0002 34.8055 50.8348 38.5053 48.7814V22.439L40.6142 26.7861L47.6807 23.6783C47.6807 23.6783 44.6469 17.8512 43.3335 12.32C42.0386 6.80735 35.712 7.60281 35.712 7.60281L32.0863 7.28828C31.8088 9.87811 29.182 11.913 25.9632 11.913C22.7444 11.913 20.1176 9.87811 19.8402 7.28828H19.8769V7.28848Z" fill="#681B1E"/>
<path d="M19.8769 7.28848L18.3416 7.41793C18.7855 10.7107 22.0413 13.2635 26 13.2635C29.9402 13.2635 33.196 10.7107 33.6584 7.41793L32.1231 7.28848C31.8456 9.87832 29.2188 11.9132 26 11.9132C22.7812 11.9132 20.1544 9.87832 19.8769 7.28848Z" fill="white"/>
<path d="M5.1149 21.995C4.63397 23.0494 4.30096 23.6784 4.30096 23.6784L11.3675 26.7862L12.1074 25.2693L5.1149 22.0136V21.995ZM39.911 25.2508L40.651 26.7677L47.7175 23.6599C47.7175 23.6599 47.3845 23.031 46.9036 21.9765L39.911 25.2324V25.2508Z" fill="white"/>
</g>
<defs>
<clipPath id="clip0_53_772">
<rect width="52" height="52" fill="white"/>
</clipPath>
</defs>
</svg>
