<svg width="44" height="44" viewBox="0 0 44 44" fill="none" xmlns="http://www.w3.org/2000/svg">
<path opacity="0.4" d="M22 40.3517C32.1251 40.3517 40.3333 32.1437 40.3333 22.0183C40.3333 11.8931 32.1251 3.68502 22 3.68502C11.8748 3.68502 3.66666 11.8931 3.66666 22.0183C3.66666 32.1437 11.8748 40.3517 22 40.3517Z" fill="#681B1E"/>
<path d="M22 12.7232C18.205 12.7232 15.125 15.8032 15.125 19.5982C15.125 23.3198 18.04 26.3448 21.9083 26.4548C21.9633 26.4548 22.0367 26.4548 22.0733 26.4548C22.11 26.4548 22.165 26.4548 22.2017 26.4548C22.22 26.4548 22.2383 26.4548 22.2383 26.4548C25.9417 26.3265 28.8567 23.3198 28.875 19.5982C28.875 15.8032 25.795 12.7232 22 12.7232Z" fill="white"/>
<path d="M34.4313 35.4933C31.168 38.5 26.8046 40.3517 22.0013 40.3517C17.198 40.3517 12.8346 38.5 9.57129 35.4933C10.0113 33.825 11.203 32.3033 12.9446 31.13C17.9496 27.7933 26.0896 27.7933 31.058 31.13C32.818 32.3033 33.9913 33.825 34.4313 35.4933Z" fill="white"/>
</svg>
